Coordinates
version=1
nRows=8
nColumns=40
inDegrees=yes

Units are S.I. units (second, meters, Newtons, ...)
If the header above contains a line with 'inDegrees', this indicates whether rotational values are in degrees (yes) or radians (no).

endheader
time	pelvis_tilt	pelvis_list	pelvis_rotation	pelvis_tx	pelvis_ty	pelvis_tz	hip_flexion_r	hip_adduction_r	hip_rotation_r	knee_angle_r	knee_angle_r_beta	ankle_angle_r	subtalar_angle_r	mtp_angle_r	hip_flexion_l	hip_adduction_l	hip_rotation_l	knee_angle_l	knee_angle_l_beta	ankle_angle_l	subtalar_angle_l	mtp_angle_l	lumbar_extension	lumbar_bending	lumbar_rotation	arm_flex_r	arm_add_r	arm_rot_r	elbow_flex_r	pro_sup_r	wrist_flex_r	wrist_dev_r	arm_flex_l	arm_add_l	arm_rot_l	elbow_flex_l	pro_sup_l	wrist_flex_l	wrist_dev_l
      5.57500000	    -38.27707387	      9.17386444	      4.47728026	     -0.43004908	      0.75076796	     -0.92362664	     96.82311454	    -19.46289336	      8.00776694	     81.19841478	      1.41717969	     27.89537174	      0.00000000	      0.00000000	     90.37329791	     -4.40038114	     -6.60045661	     78.34723613	      1.36741723	     29.43274656	      0.00000000	      0.00000000	    -33.88242846	     -1.94381762	    -13.18944937	     -4.79399972	    -62.01996184	     60.46472820	    110.61838093	     88.07294701	      0.00000000	      0.00000000	     -6.01336433	    -60.63870807	     62.30291370	    100.79325261	     88.25750962	      0.00000000	      0.00000000
      5.58000000	    -38.09780972	      8.24596325	      4.82099052	     -0.42899972	      0.75296348	     -0.92391594	     95.98912696	    -19.84125384	      6.97034535	     80.95958614	      1.41301134	     28.08730222	      0.00000000	      0.00000000	     90.23682025	     -4.02389495	     -5.55265781	     78.12014015	      1.36345366	     29.29454161	      0.00000000	      0.00000000	    -33.55492303	     -0.88770365	    -12.99407928	     -4.70009460	    -62.17149826	     60.43870576	    110.64574845	     88.05934654	      0.00000000	      0.00000000	     -6.12671082	    -60.41794872	     62.10046668	    100.60172492	     88.25215098	      0.00000000	      0.00000000
      5.58500000	    -38.47406157	      5.95130576	     -0.63428401	     -0.43169907	      0.75302742	     -0.90831642	     94.84499199	    -12.50760869	      4.83031882	     79.45880878	      1.38681783	     27.70065412	      0.00000000	      0.00000000	     91.41682711	    -11.06982118	     -3.53773237	     78.97529520	      1.37837893	     29.01158237	      0.00000000	      0.00000000	    -32.55215006	     -2.38961637	     -7.21918700	     -4.35767468	    -61.78417468	     60.78040840	    110.79270514	     88.05497439	      0.00000000	      0.00000000	     -6.79075812	    -61.31835682	     61.30764305	    101.25957418	     88.24922096	      0.00000000	      0.00000000
      5.59000000	    -37.34320070	      7.38868366	      4.00785979	     -0.42635858	      0.75841526	     -0.92148463	     94.07723689	    -18.82487263	      5.92723563	     80.12198143	      1.39839238	     28.17127051	      0.00000000	      0.00000000	     89.14413235	     -4.87443299	     -4.61304065	     77.70314061	      1.35617564	     29.17858210	      0.00000000	      0.00000000	    -33.42214638	     -0.60350800	    -11.89375868	     -4.54353855	    -62.12436970	     60.43866633	    110.60160954	     88.04518448	      0.00000000	      0.00000000	     -6.30055863	    -60.45898397	     61.55394880	    100.68573756	     88.25755397	      0.00000000	      0.00000000
      5.59500000	    -36.87916481	      7.66001654	      3.82164917	     -0.42440073	      0.76213219	     -0.92138436	     93.24388294	    -18.74756512	      6.06463496	     79.63605049	      1.38991128	     28.11183157	      0.00000000	      0.00000000	     88.15027159	     -4.81928592	     -4.79473015	     77.16553395	      1.34679264	     29.15215910	      0.00000000	      0.00000000	    -33.49880914	     -0.90289019	    -11.94094302	     -4.43993901	    -62.00606065	     60.32155806	    110.48859411	     88.03443552	      0.00000000	      0.00000000	     -6.29761105	    -60.37700897	     61.44192535	    100.37129225	     88.24479674	      0.00000000	      0.00000000
      5.60000000	    -37.46718167	      4.30190282	     -0.33778214	     -0.42711813	      0.76191118	     -0.90823892	     92.13861830	    -12.68148928	      3.11409481	     78.31554484	      1.36686411	     28.02584434	      0.00000000	      0.00000000	     89.91447167	    -10.58895725	     -1.70788939	     78.01267118	      1.36157797	     28.82997761	      0.00000000	      0.00000000	    -32.18076289	     -0.61889976	     -6.71019702	     -4.18287211	    -62.01076041	     60.57010935	    110.84303706	     88.00407021	      0.00000000	      0.00000000	     -7.28885313	    -60.99175263	     60.45607437	    101.01459817	     88.25644773	      0.00000000	      0.00000000
      5.60500000	    -35.66425583	      6.94974162	      3.54886879	     -0.42025706	      0.76912022	     -0.92042535	     90.81394669	    -18.52814653	      5.01433132	     78.85841596	      1.37633900	     28.44680581	      0.00000000	      0.00000000	     86.37657791	     -4.91380258	     -3.91969104	     76.57141835	      1.33642336	     29.39145932	      0.00000000	      0.00000000	    -33.71910509	     -0.35526306	    -11.43863940	     -4.19617125	    -61.99531527	     60.34140906	    110.41693064	     88.01642985	      0.00000000	      0.00000000	     -6.68219514	    -60.28139270	     60.78978131	    100.29291531	     88.25287390	      0.00000000	      0.00000000
      5.61000000	    -35.03113851	      7.41647087	      3.20354169	     -0.41785740	      0.77322559	     -0.91993230	     89.85877913	    -18.31062580	      5.38249196	     78.39108618	      1.36818256	     28.33459578	      0.00000000	      0.00000000	     85.12221847	     -4.98092960	     -4.33160704	     76.06456772	      1.32757715	     29.31784095	      0.00000000	      0.00000000	    -33.89395860	     -0.95465217	    -11.42353465	     -4.15265299	    -61.77232711	     60.31102299	    110.18752605	     88.02860541	      0.00000000	      0.00000000	     -6.69475867	    -60.33028008	     60.54947875	    100.12129809	     88.23380609	      0.00000000	      0.00000000
